<svg xmlns="http://www.w3.org/2000/svg" viewBox="0 0 32 32"><path d="M 16.30 16.00 L 16.38 16.07 L 16.45 16.17 L 16.49 16.29 L 16.50 16.44 L 16.47 16.59 L 16.40 16.75 L 16.29 16.89 L 16.13 17.02 L 15.94 17.12 L 15.73 17.18 L 15.48 17.19 L 15.23 17.16 L 14.97 17.07 L 14.72 16.92 L 14.50 16.71 L 14.30 16.45 L 14.16 16.15 L 14.07 15.81 L 14.05 15.44 L 14.10 15.06 L 14.23 14.68 L 14.43 14.32 L 14.70 13.99 L 15.05 13.71 L 15.46 13.48 L 15.91 13.34 L 16.41 13.27 L 16.92 13.30 L 17.43 13.43 L 17.92 13.66 L 18.38 13.98 L 18.78 14.40 L 19.11 14.89 L 19.35 15.45 L 19.48 16.06 L 19.51 16.70 L 19.41 17.35 L 19.19 17.99 L 18.85 18.59 L 18.40 19.13 L 17.84 19.59 L 17.19 19.94 L 16.48 20.18 L 15.72 20.29 L 14.93 20.26 L 14.15 20.08 L 13.39 19.76 L 12.70 19.30 L 12.09 18.70 L 11.58 18.00 L 11.21 17.20 L 10.98 16.33 L 10.91 15.41 L 11.01 14.48 L 11.28 13.57 L 11.72 12.71 L 12.32 11.93 L 13.06 11.26 L 13.92 10.73 L 14.88 10.35 L 15.91 10.15 L 16.97 10.14 L 18.04 10.32 L 19.07 10.70 L 20.02 11.27 L 20.88 12.01 L 21.59 12.90 L 22.14 13.92 L 22.51 15.04 L 22.66 16.22 L 22.60 17.43 L 22.33 18.63 L 21.83 19.77 L 21.13 20.81 L 20.24 21.72 L 19.18 22.47 L 18.00 23.02 L 16.72 23.36 L 15.38 23.46 L 14.03 23.32 L 12.71 22.93 L 11.47 22.30 L 10.35 21.45 L 9.39 20.40 L 8.63 19.19 L 8.09 17.84 L 7.80 16.39 L 7.77 14.91 L 8.01 13.42 L 8.52 11.99 L 9.29 10.66 L 10.29 9.48 L 11.51 8.48 L 12.89 7.71 L 14.41 7.20 L 16.01 6.97 L 17.64 7.03 L 19.26 7.38 L 20.79 8.03 L 22.20 8.94 L 23.44 10.11 L 24.45 11.50 L 25.21 13.05 L 25.68 14.74 L 25.84 16.50 L 25.68 18.27 L 25.20 20.00 L 24.41 21.64 L 23.33 23.11 L 21.99 24.39 L 20.43 25.40 L 18.70 26.13 L 16.85 26.54 L 14.94 26.62 L 13.03 26.34 L 11.19 25.72 L 9.47 24.78 L 7.94 23.53 L 6.64 22.01 L 5.63 20.28 L 4.95 18.37 L 4.61 16.35 L 4.64 14.30 L 5.04 12.26 L 5.81 10.31 L 6.92 8.52 L 8.35 6.95 L 10.05 5.65 L 11.96 4.66 L 14.05 4.03 L 16.22 3.79 L 18.42 3.93 L 20.58 4.48 L 22.61 5.41 L 24.46 6.69 L 26.07 8.30 L 27.36 10.19 L 28.31 12.29 L 28.86 14.54" fill="none" stroke="#b56d3f" stroke-width="2" stroke-linecap="round" stroke-linejoin="round"/></svg>
