<svg xmlns="http://www.w3.org/2000/svg" viewBox="0 0 32 32"><path d="M 17.5 16.0 Q 17.6 16.4 17.6 16.7 Q 17.6 16.9 17.5 17.2 Q 17.4 17.4 17.3 17.7 Q 17.1 17.9 16.9 18.1 Q 16.6 18.3 16.3 18.5 Q 16.0 18.6 15.6 18.6 Q 15.3 18.7 14.9 18.6 Q 14.5 18.6 14.1 18.4 Q 13.8 18.2 13.4 17.9 Q 13.1 17.7 12.9 17.3 Q 12.6 16.9 12.5 16.5 Q 12.3 16.0 12.3 15.5 Q 12.2 15.0 12.4 14.5 Q 12.5 14.0 12.7 13.5 Q 13.0 13.0 13.4 12.6 Q 13.8 12.2 14.3 11.9 Q 14.8 11.5 15.4 11.4 Q 16.0 11.2 16.6 11.2 Q 17.3 11.2 17.9 11.4 Q 18.6 11.5 19.2 11.9 Q 19.8 12.2 20.3 12.7 Q 20.8 13.2 21.2 13.9 Q 21.5 14.5 21.7 15.3 Q 21.9 16.0 21.9 16.8 Q 21.9 17.6 21.6 18.4 Q 21.4 19.1 21.0 19.8 Q 20.6 20.6 19.9 21.2 Q 19.3 21.7 18.5 22.2 Q 17.8 22.6 16.9 22.8 Q 16.0 23.0 15.1 23.0 Q 14.1 22.9 13.2 22.7 Q 12.3 22.4 11.5 21.9 Q 10.7 21.3 10.0 20.6 Q 9.3 19.9 8.8 19.0 Q 8.4 18.0 8.1 17.0 Q 7.9 16.0 8.0 14.9 Q 8.0 13.9 8.3 12.8 Q 8.7 11.8 9.3 10.8 Q 9.9 9.9 10.7 9.1 Q 11.6 8.4 12.6 7.8 Q 13.7 7.3 14.8 7.0 Q 16.0 6.8 17.2 6.9 Q 18.4 6.9 19.6 7.3 Q 20.8 7.7 21.8 8.4 Q 22.9 9.1 23.7 10.1 Q 24.6 11.0 25.2 12.2 Q 25.8 13.4 26.0 14.7 T 26.3 16.0" fill="none" stroke="#b56d3f" stroke-width="2.2" stroke-linecap="round" stroke-linejoin="round"/></svg>
